<svg width="49" height="49" viewBox="0 0 49 49" fill="none" xmlns="http://www.w3.org/2000/svg">
<path d="M24.5 19.5426V47M24.5 19.5426H35.75M24.5 19.5426H13.25M24.5 47H33.5M24.5 47H15.5M33.5 47H42.5L44 37.8475M33.5 47L35.75 19.5426M35.75 19.5426H47L45.5 28.6951M35.75 19.5426C34.4859 7.98626 33.4746 1.99058 24.5 2.00034C15.7197 2.23579 14.3007 7.65122 13.25 19.5426M13.25 19.5426H2L3.47215 28.5251M13.25 19.5426L15.5 47M15.5 47H6.5L4.98608 37.7626M3.47215 28.5251L45.5 28.6951M3.47215 28.5251L4.98608 37.7626M45.5 28.6951L44 37.8475M4.98608 37.7626L44 37.8475" stroke="url(#paint0_linear_298_603)" stroke-width="3" stroke-linecap="square"/>
<defs>
<linearGradient id="paint0_linear_298_603" x1="24.5" y1="2" x2="24.5" y2="47" gradientUnits="userSpaceOnUse">
<stop stop-color="#6A7884"/>
<stop offset="1" stop-color="#363D43"/>
</linearGradient>
</defs>
</svg>
