<svg width="60" height="60" viewBox="0 0 60 60" fill="none" xmlns="http://www.w3.org/2000/svg">
<mask id="mask0_998_45" style="mask-type:alpha" maskUnits="userSpaceOnUse" x="0" y="0" width="60" height="60">
<circle cx="30" cy="30" r="30" fill="#D9D9D9"/>
</mask>
<g mask="url(#mask0_998_45)">
<path d="M5.82221 51.0755C8.39802 49.0284 11.1734 46.5986 14.196 43.7588C6.67774 30.6685 13.012 21.5482 43.7336 12.6922C43.3328 38.0072 29.026 57.9948 15.971 46.0761C13.7254 48.6541 11.2867 51.4479 8.6356 54.4797L5.82221 51.0755Z" fill="url(#paint0_linear_998_45)"/>
<mask id="mask1_998_45" style="mask-type:alpha" maskUnits="userSpaceOnUse" x="5" y="12" width="39" height="43">
<path d="M5.82221 51.0755C8.39802 49.0284 11.1734 46.5986 14.196 43.7588C6.67774 30.6685 13.012 21.5482 43.7336 12.6922C43.3328 38.0072 29.026 57.9948 15.971 46.0761C13.7254 48.6541 11.2867 51.4479 8.6356 54.4797L5.82221 51.0755Z" fill="url(#paint1_linear_998_45)"/>
</mask>
<g mask="url(#mask1_998_45)">
<path d="M45.5765 10.3848C42.5929 13.8116 21.2603 38.551 6.3457 52.5001L8.6534 53.0771C32.6788 27.2221 43.9776 12.8833 45.5765 10.3848Z" fill="black" fill-opacity="0.5"/>
</g>
<circle cx="30" cy="30" r="29" stroke="url(#paint2_linear_998_45)" stroke-width="2"/>
</g>
<defs>
<linearGradient id="paint0_linear_998_45" x1="23.0206" y1="14.8261" x2="26.9118" y2="52.5968" gradientUnits="userSpaceOnUse">
<stop stop-color="#F6BB1B"/>
<stop offset="1" stop-color="#906D10"/>
</linearGradient>
<linearGradient id="paint1_linear_998_45" x1="23.0206" y1="14.8261" x2="26.9118" y2="52.5968" gradientUnits="userSpaceOnUse">
<stop stop-color="#F6BB1B"/>
<stop offset="1" stop-color="#906D10"/>
</linearGradient>
<linearGradient id="paint2_linear_998_45" x1="30" y1="0" x2="30" y2="60" gradientUnits="userSpaceOnUse">
<stop stop-color="#F5BB1B"/>
<stop offset="1" stop-color="#685928"/>
</linearGradient>
</defs>
</svg>
