<svg width="72" height="66" viewBox="0 0 72 66" fill="none" xmlns="http://www.w3.org/2000/svg">
<path d="M26.507 40.6375C25.4982 42.5379 25.0808 43.5301 25.5542 44.6979C26.6031 46.6347 28.5812 46.6206 34.9864 44.3112C35.7286 43.9493 36.1011 43.3924 35.9365 42.571M26.507 40.6375C24.1497 42.4238 21.969 45.276 17.8371 50.8852M26.507 40.6375C21.0478 28.5904 16.4714 20.9667 12.1617 14.0514M16.789 8.63749C16.6002 8.6501 16.6955 8.62528 16.5032 8.63749C16.1921 8.36788 15.9188 8.27493 15.3599 8.15411C12.1886 8.25713 10.6018 8.63214 9.83407 9.37248M16.789 8.63749C26.7057 25.8147 29.252 30.2542 34.51 40.1541C35.3595 41.14 35.8091 41.9348 35.9365 42.571M16.789 8.63749C20.2273 7.91924 23.1631 7.51481 28.1267 7.18984M17.8371 50.8852C17.8707 49.5265 13.8812 41.0217 5.64202 25.1692C5.57569 25.0576 5.51254 24.9589 5.45146 24.872M17.8371 50.8852C15.7848 53.4923 15.6679 54.2857 16.0269 55.3323C16.592 56.4474 17.3578 57.1634 19.7426 57.5853M9.83407 9.37248C9.25125 9.93454 9.14055 10.7071 9.1671 11.7311C9.92965 13.1369 10.4425 13.6556 11.7395 13.3747C11.88 13.5996 12.0207 13.8251 12.1617 14.0514M9.83407 9.37248C5.67814 15.4639 3.94042 18.0488 1.2594 22.0755C0.822166 23.0555 0.870949 23.5898 1.92627 24.4924C2.44595 24.9021 3.02429 24.7867 4.21292 24.3958C4.7424 24.2409 5.05286 24.3049 5.45146 24.872M25.9727 58.0634C23.3049 57.9944 21.0999 57.8254 19.7426 57.5853M35.9365 42.571C36.1335 43.2459 36.1296 43.8131 35.9365 44.3078M19.7426 57.5853C20.4417 57.5649 21.1562 57.2356 21.9339 56.6177M21.9339 56.6177C23.7415 55.1816 25.8908 52.1864 28.9841 47.8882C32.9015 46.6859 35.3355 45.8476 35.9365 44.3078M21.9339 56.6177C23.2722 56.9359 24.2128 57.0223 26.6976 56.7825M32.7951 51.6586L29.4605 51.3686C26.5851 57.344 24.818 60.1207 21.648 65C24.096 64.3908 25.4392 64.1146 27.6503 64.0332C28.7646 64.0276 29.2253 63.4257 29.5558 60.5529C29.6026 60.0994 29.7557 59.438 30.1731 58.2326M32.7951 51.6586L37.1777 51.0786C38.3304 50.9098 38.2009 53.5995 37.9399 56.8792M32.7951 51.6586C31.8564 53.8694 31.1841 55.5249 30.7041 56.7825M32.7951 51.6586C32.9966 53.6711 33.1116 55.5188 33.1762 56.8792M30.7041 56.7825C31.7881 56.7671 32.325 56.9986 33.1762 56.8792M30.7041 56.7825C30.4915 57.3393 30.3167 57.8181 30.1731 58.2326M33.1762 56.8792C33.2069 57.5258 33.2432 57.8599 33.2403 58.426M30.1731 58.2326C31.7908 58.3567 32.5172 58.4054 33.2403 58.426M33.2403 58.426C33.2343 59.6179 33.152 60.6789 32.9857 61.8097C34.396 61.8941 35.4264 61.6242 37.6541 60.6495C37.6932 59.9625 37.7421 59.282 37.7936 58.6193M37.7936 58.6193C45.0002 59.2792 47.0911 59.2301 51.0877 59.1994C51.0676 56.832 51.0044 55.5013 50.6341 53.1088M37.7936 58.6193C37.8473 57.9284 37.889 57.5183 37.9399 56.8792M37.9399 56.8792C43.9545 57.5128 46.6291 57.106 50.0397 56.8526C50.2364 56.0806 50.3866 55.4033 50.4892 54.7523M46.5146 9.32154C45.2194 6.80659 43.8305 4.04701 42.3225 1C38.2809 3.74055 35.1801 5.94845 31.2707 6.8241M46.5146 9.32154C54.0002 23.8576 58.3505 30.2211 64.4261 36.6737C62.8451 38.2789 61.9392 38.9637 60.234 39.1873C51.8008 40.3505 46.5646 41.4068 35.9365 44.3078M46.5146 9.32154C49.0074 9.27481 50.4284 8.91559 52.9932 7.76737C57.8253 19.7891 60.7577 26.3089 67.7607 36.1903C70.3865 39.5593 70.8721 41.1405 71 43.7311C70.2479 43.8071 69.6126 43.8791 69.0945 43.9804M51.0877 49.3641C50.6128 49.4064 50.3854 49.5518 50.4208 49.8218C50.5319 50.6193 50.6026 51.312 50.6341 51.9486M51.0877 49.3641C52.3871 49.2482 55.5397 49.9031 60.234 50.8852C60.7508 49.9508 60.9988 49.4374 62.0442 48.3716C62.3245 48.0839 62.6738 47.9856 63.0923 48.029M51.0877 49.3641C47.0401 49.4113 44.7893 49.5171 40.7981 49.8218M63.0923 48.029C64.1808 48.1419 65.7368 49.2135 67.7607 50.4018C67.5077 48.8298 67.3978 47.8391 67.3796 45.4713C67.365 44.5795 67.9376 44.2067 69.0945 43.9804M63.0923 48.029C58.8121 46.9825 55.8843 46.7608 50.4208 46.5347M69.0945 43.9804C61.0325 43.9627 56.485 43.8714 48.6106 44.4079M50.6341 51.9486C48.4021 51.6014 45.6984 51.7782 39.5596 52.432M50.6341 51.9486C50.684 52.9602 50.6345 53.8298 50.4892 54.7523M50.4892 54.7523C45.8137 55.6228 43.6685 55.6543 40.0359 55.5257M44.8949 34.8369C42.4644 33.4967 41.1556 32.8013 39.2737 32.0332C40.1828 30.1731 40.6004 28.9748 42.132 28.1662C43.1256 27.776 43.6052 27.6706 44.3233 27.6828C46.4996 28.3225 47.3552 28.668 47.1815 29.2296C46.2182 32.4324 45.735 33.412 44.8949 34.8369ZM44.8949 34.8369C44.6448 32.1326 44.2995 30.6459 42.5131 28.1662M41.9414 27.7795C43.7311 26.0793 45.1401 24.9701 44.585 24.1057M41.9414 27.7795C39.9984 28.7033 38.9024 29.6621 36.9872 28.7462C35.0035 26.302 33.7512 23.9534 31.4613 19.3686C31.1957 17.7481 31.6048 16.8211 33.9384 15.1148M41.9414 27.7795C38.7087 21.9154 36.862 18.3361 33.9384 15.1148M44.5138 24.0091C44.5404 24.041 44.5641 24.0732 44.585 24.1057M44.585 24.1057C41.5334 19.0359 39.8681 16.3053 38.321 14.9215C37.6495 14.3297 36.4707 14.5124 33.9384 15.1148M33.7478 14.3414C33.2057 15.0366 31.8081 14.9143 29.1747 14.6314C28.988 11.3021 28.9332 9.59311 29.6511 9.12085M33.7478 14.3414C34.495 13.6935 34.9446 12.9434 35.8439 10.3776C32.395 9.07518 30.7628 8.58253 29.6511 9.12085M33.7478 14.3414C32.7131 11.7894 31.9735 10.5035 29.6511 9.12085M12.1617 14.0514C11.1354 16.384 9.77362 18.6248 5.45146 24.872M28.1267 7.18984C28.6436 7.156 29.1825 7.12302 29.7463 7.09064C30.2697 7.02414 30.7767 6.93476 31.2707 6.8241M28.1267 7.18984C27.0429 8.76749 26.9852 11.5553 26.6976 15.8882C29.2893 16.7702 29.9692 17.2142 29.8416 17.9184C28.2549 18.8278 28.8583 20.1129 30.6038 22.7523C30.2457 24.0575 29.8391 24.7706 29.0794 26.0393C30.1377 26.41 30.8674 26.4984 32.3187 26.5227C33.3701 29.7504 34.5689 30.6107 37.273 31.2598C37.2346 31.8258 36.9618 32.2567 36.3202 33.0967C36.051 35.2837 40.0333 36.0434 45.8476 37.5438C48.694 32.3283 50.5748 29.0927 49.8492 27.7795C47.4851 26.1997 46.3617 25.3761 46.8957 24.6858C47.9947 23.6851 48.0519 22.9082 46.324 20.8187C45.7238 19.8195 45.4122 19.2519 46.7051 17.7251C45.0512 17.3496 44.1295 17.0676 42.5131 16.1782C41.5769 14.4225 40.8504 13.5923 38.7974 12.6979C38.8698 11.4145 38.8955 10.6914 38.6068 9.32154C36.8206 9.07933 34.8745 8.30172 31.2707 6.8241M24.1252 38.6073C21.456 40.9513 20.2115 42.9198 17.6465 46.4381C17.1185 46.1173 17.1314 45.8471 17.456 45.2779C21.1766 39.8258 23.0226 37.3794 24.1252 38.6073ZM17.8371 27.1994C16.7452 27.388 15.6691 28.4956 11.549 35.2236C11.8096 35.5397 11.908 35.5383 12.0254 35.3202C14.4377 32.4456 15.7087 30.6649 17.8371 27.1994ZM7.07112 25.8459C6.80736 25.2265 7.15037 24.3582 11.4537 18.8852C11.9313 18.5998 12.1337 18.6674 12.3112 19.1752C9.93861 22.3934 8.65802 24.1033 7.07112 25.8459ZM14.5978 14.6314C14.6726 13.8619 14.8598 13.5028 16.2174 13.3746C17.3049 14.1551 17.4457 14.6318 17.456 15.5015C15.8928 16.1778 15.2508 16.0245 14.5978 14.6314ZM21.5528 23.3323C20.783 23.7027 20.3672 23.9248 20.9811 25.5559C21.3175 25.8726 21.5423 26.0281 23.363 25.4592C23.5484 24.3695 23.3191 23.8544 21.5528 23.3323ZM26.8881 35.6103C26.5022 36.4351 26.7125 36.7951 27.4598 37.3505C28.7339 37.5112 29.2949 37.4455 29.8416 36.8671C28.9844 35.4576 28.4004 34.988 26.8881 35.6103Z" stroke="url(#paint0_linear_298_607)" stroke-width="1.2" stroke-linecap="square"/>
<defs>
<linearGradient id="paint0_linear_298_607" x1="36" y1="1" x2="35.3907" y2="128.418" gradientUnits="userSpaceOnUse">
<stop stop-color="#6A7884"/>
<stop offset="1" stop-color="#363D43"/>
</linearGradient>
</defs>
</svg>
