<svg width="60" height="60" viewBox="0 0 60 60" fill="none" xmlns="http://www.w3.org/2000/svg">
<mask id="mask0_998_52" style="mask-type:alpha" maskUnits="userSpaceOnUse" x="0" y="0" width="60" height="60">
<circle cx="30" cy="30" r="30" fill="#D9D9D9"/>
</mask>
<g mask="url(#mask0_998_52)">
<circle cx="30" cy="41.5" r="13.5" fill="url(#paint0_linear_998_52)"/>
<path fill-rule="evenodd" clip-rule="evenodd" d="M30 53C36.3513 53 41.5 47.8513 41.5 41.5C41.5 35.1487 36.3513 30 30 30C23.6487 30 18.5 35.1487 18.5 41.5C18.5 47.8513 23.6487 53 30 53ZM30 55C37.4558 55 43.5 48.9558 43.5 41.5C43.5 34.0442 37.4558 28 30 28C22.5442 28 16.5 34.0442 16.5 41.5C16.5 48.9558 22.5442 55 30 55Z" fill="url(#paint1_linear_998_52)"/>
<path d="M43.5 41.5C43.5 43.2728 43.1508 45.0283 42.4724 46.6662C41.7939 48.3041 40.7995 49.7924 39.5459 51.0459C38.2923 52.2995 36.8041 53.2939 35.1662 53.9724C33.5283 54.6508 31.7728 55 30 55C28.2272 55 26.4717 54.6508 24.8338 53.9724C23.1959 53.2939 21.7076 52.2995 20.4541 51.0459C19.2005 49.7924 18.2061 48.3041 17.5276 46.6662C16.8492 45.0283 16.5 43.2728 16.5 41.5H43.5Z" fill="url(#paint2_linear_998_52)"/>
<path fill-rule="evenodd" clip-rule="evenodd" d="M25.5 18C25.5 17.4477 25.9477 17 26.5 17H33.5C34.0523 17 34.5 17.4477 34.5 18C34.5 18.5523 34.0523 19 33.5 19H26.5C25.9477 19 25.5 18.5523 25.5 18Z" fill="url(#paint3_linear_998_52)"/>
<path d="M27.5 19H32.5V30H27.5V19Z" fill="url(#paint4_linear_998_52)"/>
<path d="M32 15.5C32.8284 15.5 33.5 14.8284 33.5 14C33.5 13.1716 32.8284 12.5 32 12.5C31.1716 12.5 30.5 13.1716 30.5 14C30.5 14.8284 31.1716 15.5 32 15.5Z" stroke="url(#paint5_linear_998_52)"/>
<path d="M28 11.5C28.8284 11.5 29.5 10.8284 29.5 10C29.5 9.17157 28.8284 8.5 28 8.5C27.1716 8.5 26.5 9.17157 26.5 10C26.5 10.8284 27.1716 11.5 28 11.5Z" stroke="url(#paint6_linear_998_52)"/>
<path d="M32 7.5C32.8284 7.5 33.5 6.82843 33.5 6C33.5 5.17157 32.8284 4.5 32 4.5C31.1716 4.5 30.5 5.17157 30.5 6C30.5 6.82843 31.1716 7.5 32 7.5Z" stroke="url(#paint7_linear_998_52)"/>
<circle cx="30" cy="30" r="29" stroke="url(#paint8_linear_998_52)" stroke-width="2"/>
</g>
<defs>
<linearGradient id="paint0_linear_998_52" x1="30" y1="28" x2="30" y2="55" gradientUnits="userSpaceOnUse">
<stop stop-opacity="0"/>
<stop offset="1" stop-color="#F5BB1B"/>
</linearGradient>
<linearGradient id="paint1_linear_998_52" x1="30" y1="17" x2="30" y2="55" gradientUnits="userSpaceOnUse">
<stop stop-color="#F5BB1B"/>
<stop offset="1" stop-color="#685928"/>
</linearGradient>
<linearGradient id="paint2_linear_998_52" x1="30" y1="17" x2="30" y2="55" gradientUnits="userSpaceOnUse">
<stop stop-color="#F5BB1B"/>
<stop offset="1" stop-color="#685928"/>
</linearGradient>
<linearGradient id="paint3_linear_998_52" x1="30" y1="17" x2="30" y2="55" gradientUnits="userSpaceOnUse">
<stop stop-color="#F5BB1B"/>
<stop offset="1" stop-color="#685928"/>
</linearGradient>
<linearGradient id="paint4_linear_998_52" x1="30" y1="17" x2="30" y2="55" gradientUnits="userSpaceOnUse">
<stop stop-color="#F5BB1B"/>
<stop offset="1" stop-color="#685928"/>
</linearGradient>
<linearGradient id="paint5_linear_998_52" x1="32" y1="13" x2="32" y2="15" gradientUnits="userSpaceOnUse">
<stop stop-color="#F5BB1B"/>
<stop offset="1" stop-color="#695A28"/>
</linearGradient>
<linearGradient id="paint6_linear_998_52" x1="28" y1="9" x2="28" y2="11" gradientUnits="userSpaceOnUse">
<stop stop-color="#F5BB1B"/>
<stop offset="1" stop-color="#695A28"/>
</linearGradient>
<linearGradient id="paint7_linear_998_52" x1="32" y1="5" x2="32" y2="7" gradientUnits="userSpaceOnUse">
<stop stop-color="#F5BB1B"/>
<stop offset="1" stop-color="#695A28"/>
</linearGradient>
<linearGradient id="paint8_linear_998_52" x1="30" y1="0" x2="30" y2="60" gradientUnits="userSpaceOnUse">
<stop stop-color="#F5BB1B"/>
<stop offset="1" stop-color="#685928"/>
</linearGradient>
</defs>
</svg>
