<?xml version="1.0" standalone="no"?>
<svg version="1.0" xmlns="http://www.w3.org/2000/svg"
 width="128.000000pt" height="128.000000pt" viewBox="0 0 128.000000 128.000000"
 preserveAspectRatio="xMidYMid meet">

<g transform="translate(0.000000,128.000000) scale(0.100000,-0.100000)"
fill="#BBBBBB" stroke="none">
<path d="M385 1187 c-38 -22 -140 -80 -225 -127 -91 -51 -156 -94 -158 -104
-5 -23 12 -42 69 -74 27 -15 49 -30 49 -33 0 -3 -18 -14 -40 -24 -48 -22 -73
-48 -68 -71 2 -10 35 -37 73 -59 l70 -42 2 -149 c2 -82 5 -159 8 -170 5 -22
25 -35 240 -159 196 -114 217 -125 235 -125 10 0 98 47 196 104 256 148 258
149 266 161 4 5 8 83 8 171 l0 162 78 43 c64 37 77 48 77 69 0 20 -11 31 -52
55 -29 17 -52 33 -53 36 0 3 22 18 49 32 56 31 74 49 69 73 -3 19 -450 274
-479 274 -11 0 -48 -18 -83 -40 -35 -22 -69 -40 -76 -40 -7 0 -41 18 -76 40
-35 22 -74 40 -86 39 -13 0 -54 -19 -93 -42z m136 -64 c16 -10 29 -20 29 -23
0 -3 -77 -49 -172 -103 l-171 -99 -33 19 c-18 10 -33 22 -34 28 -3 10 317 195
338 195 8 0 27 -8 43 -17z m454 -74 c88 -49 164 -94 169 -99 5 -5 -10 -18 -33
-30 l-42 -21 -169 98 c-93 54 -170 100 -170 103 0 9 54 39 70 40 8 0 87 -41
175 -91z m-156 -96 c94 -54 170 -100 171 -103 0 -3 -62 -40 -138 -82 -75 -43
-150 -87 -167 -98 -16 -11 -36 -20 -42 -20 -14 0 -353 192 -353 200 1 3 44 30
97 60 53 30 128 74 167 97 39 24 77 43 83 43 7 0 89 -44 182 -97z m-438 -250
c93 -54 169 -100 169 -103 0 -3 -14 -13 -32 -23 l-31 -18 -156 87 c-183 102
-191 107 -191 114 0 7 52 39 64 40 5 0 84 -44 177 -97z m730 80 c16 -10 29
-20 29 -23 0 -3 -78 -49 -174 -103 l-174 -98 -31 18 c-17 10 -31 20 -31 23 0
6 332 199 343 200 5 0 22 -8 38 -17z m-786 -224 c39 -22 92 -52 118 -65 l48
-25 55 31 54 31 0 -185 c0 -102 -3 -186 -6 -186 -3 0 -58 31 -122 68 -64 38
-143 83 -175 101 l-58 33 2 119 c0 65 4 119 8 119 3 0 38 -18 76 -41z m705
-81 l0 -123 -63 -34 c-34 -19 -110 -63 -168 -98 -59 -34 -110 -63 -113 -63 -3
0 -6 83 -6 185 l0 185 55 -31 55 -31 118 66 c64 36 118 66 120 66 1 0 2 -55 2
-122z"/>
</g>
</svg>
