<svg width="60" height="60" viewBox="0 0 60 60" fill="none" xmlns="http://www.w3.org/2000/svg">
<mask id="mask0_998_59" style="mask-type:alpha" maskUnits="userSpaceOnUse" x="0" y="0" width="60" height="60">
<circle cx="30" cy="30" r="30" fill="#D9D9D9"/>
</mask>
<g mask="url(#mask0_998_59)">
<path d="M15.2003 43H11.5071L22.1889 13.9091H25.8253L36.5071 43H32.8139L24.1207 18.5114H23.8935L15.2003 43ZM16.5639 31.6364H31.4503V34.7614H16.5639V31.6364Z" fill="url(#paint0_linear_998_59)"/>
<path d="M32.8862 43V21.1818H40.514C42.0339 21.1818 43.2875 21.4446 44.2747 21.9702C45.2619 22.4886 45.997 23.1882 46.4799 24.0689C46.9629 24.9425 47.2044 25.9119 47.2044 26.9773C47.2044 27.9148 47.0375 28.6889 46.7037 29.2997C46.377 29.9105 45.9437 30.3935 45.4039 30.7486C44.8713 31.1037 44.2924 31.3665 43.6674 31.5369V31.75C44.335 31.7926 45.0062 32.027 45.6809 32.4531C46.3556 32.8793 46.9203 33.4901 47.3748 34.2855C47.8294 35.081 48.0566 36.054 48.0566 37.2045C48.0566 38.2983 47.8081 39.282 47.3109 40.1555C46.8137 41.0291 46.0289 41.7216 44.9565 42.233C43.8841 42.7443 42.4885 43 40.7697 43H32.8862ZM35.5282 40.6562H40.7697C42.4956 40.6562 43.7207 40.3224 44.4451 39.6548C45.1767 38.9801 45.5424 38.1634 45.5424 37.2045C45.5424 36.4659 45.3542 35.7841 44.9778 35.1591C44.6014 34.527 44.0652 34.0227 43.3691 33.6463C42.6731 33.2628 41.8493 33.071 40.8976 33.071H35.5282V40.6562ZM35.5282 30.7699H40.4288C41.2243 30.7699 41.9416 30.6136 42.5808 30.3011C43.2271 29.9886 43.7385 29.5483 44.1149 28.9801C44.4984 28.4119 44.6902 27.7443 44.6902 26.9773C44.6902 26.0185 44.3564 25.2053 43.6887 24.5376C43.0211 23.8629 41.9629 23.5256 40.514 23.5256H35.5282V30.7699Z" fill="url(#paint1_linear_998_59)"/>
<circle cx="30" cy="30" r="29" stroke="url(#paint2_linear_998_59)" stroke-width="2"/>
</g>
<defs>
<linearGradient id="paint0_linear_998_59" x1="24" y1="23" x2="24" y2="33" gradientUnits="userSpaceOnUse">
<stop stop-color="#F5BB1B"/>
<stop offset="1" stop-color="#685928"/>
</linearGradient>
<linearGradient id="paint1_linear_998_59" x1="40" y1="27" x2="40" y2="37" gradientUnits="userSpaceOnUse">
<stop stop-color="#F5BB1B"/>
<stop offset="1" stop-color="#685928"/>
</linearGradient>
<linearGradient id="paint2_linear_998_59" x1="30" y1="0" x2="30" y2="60" gradientUnits="userSpaceOnUse">
<stop stop-color="#F5BB1B"/>
<stop offset="1" stop-color="#685928"/>
</linearGradient>
</defs>
</svg>
