<svg width="60" height="60" viewBox="0 0 60 60" fill="none" xmlns="http://www.w3.org/2000/svg">
<mask id="mask0_998_57" style="mask-type:alpha" maskUnits="userSpaceOnUse" x="0" y="0" width="60" height="60">
<circle cx="30" cy="30" r="30" fill="#D9D9D9"/>
</mask>
<g mask="url(#mask0_998_57)">
<path d="M-2 51L22 13.5L44.5 62M16 23L18 26.5L21 24.5L22.5 27L25 25L28 27M39 33.5L41 35.5L43 34L45.5 35L47.5 33M34.5 40L44 25L66.5 73.5" stroke="url(#paint0_linear_998_57)" stroke-width="2"/>
<path d="M59 30C59 46.0163 46.0163 59 30 59C13.9837 59 1 46.0163 1 30C1 13.9837 13.9837 1 30 1C46.0163 1 59 13.9837 59 30Z" stroke="url(#paint1_linear_998_57)" stroke-width="2"/>
<circle cx="36.5" cy="14.5" r="4.5" fill="url(#paint2_linear_998_57)"/>
</g>
<defs>
<linearGradient id="paint0_linear_998_57" x1="32.25" y1="13.5" x2="32.25" y2="73.5" gradientUnits="userSpaceOnUse">
<stop stop-color="#BF9520"/>
<stop offset="1" stop-color="#685928"/>
</linearGradient>
<linearGradient id="paint1_linear_998_57" x1="133" y1="-23" x2="133" y2="37" gradientUnits="userSpaceOnUse">
<stop stop-color="#F5BB1B"/>
<stop offset="1" stop-color="#685928"/>
</linearGradient>
<linearGradient id="paint2_linear_998_57" x1="36.5" y1="10" x2="36.5" y2="19" gradientUnits="userSpaceOnUse">
<stop stop-color="#BF9520"/>
<stop offset="1" stop-color="#685928"/>
</linearGradient>
</defs>
</svg>
