<svg width="60" height="60" viewBox="0 0 60 60" fill="none" xmlns="http://www.w3.org/2000/svg">
<mask id="mask0_998_61" style="mask-type:alpha" maskUnits="userSpaceOnUse" x="0" y="0" width="60" height="60">
<circle cx="30" cy="30" r="30" fill="#D9D9D9"/>
</mask>
<g mask="url(#mask0_998_61)">
<circle cx="30" cy="30" r="29" stroke="url(#paint0_linear_998_61)" stroke-width="2"/>
<path d="M48 46C40.3285 46.2952 36.9664 47.1397 32 50V18C36.7242 15.1775 40.5317 14.2163 48 14V46Z" stroke="url(#paint1_linear_998_61)" stroke-width="2"/>
<path d="M12 46C19.6715 46.2952 23.0336 47.1397 28 50V18C23.2758 15.1775 19.4683 14.2163 12 14V46Z" stroke="url(#paint2_linear_998_61)" stroke-width="2"/>
<path d="M45 42.8889C39.2464 43.1185 36.7248 43.7753 33 46V21.1111C36.5431 18.9158 39.3988 18.1683 45 18V42.8889Z" fill="url(#paint3_linear_998_61)"/>
<path d="M15 42.8889C20.7536 43.1185 23.2752 43.7753 27 46V21.1111C23.4569 18.9158 20.6012 18.1683 15 18V42.8889Z" fill="url(#paint4_linear_998_61)"/>
</g>
<defs>
<linearGradient id="paint0_linear_998_61" x1="30" y1="0" x2="30" y2="60" gradientUnits="userSpaceOnUse">
<stop stop-color="#F5BB1B"/>
<stop offset="1" stop-color="#685928"/>
</linearGradient>
<linearGradient id="paint1_linear_998_61" x1="40" y1="14" x2="40" y2="50" gradientUnits="userSpaceOnUse">
<stop stop-color="#F5BB1B"/>
<stop offset="1" stop-color="#695928"/>
</linearGradient>
<linearGradient id="paint2_linear_998_61" x1="20" y1="14" x2="20" y2="50" gradientUnits="userSpaceOnUse">
<stop stop-color="#F5BB1B"/>
<stop offset="1" stop-color="#695928"/>
</linearGradient>
<linearGradient id="paint3_linear_998_61" x1="39" y1="18" x2="39" y2="46" gradientUnits="userSpaceOnUse">
<stop stop-color="#F5BB1B"/>
<stop offset="1" stop-color="#695928"/>
</linearGradient>
<linearGradient id="paint4_linear_998_61" x1="21" y1="18" x2="21" y2="46" gradientUnits="userSpaceOnUse">
<stop stop-color="#F5BB1B"/>
<stop offset="1" stop-color="#695928"/>
</linearGradient>
</defs>
</svg>
