<?xml version="1.0" standalone="no"?>
<!DOCTYPE svg PUBLIC "-//W3C//DTD SVG 20010904//EN"
 "http://www.w3.org/TR/2001/REC-SVG-20010904/DTD/svg10.dtd">
<svg version="1.0" xmlns="http://www.w3.org/2000/svg"
 width="300.000000pt" height="300.000000pt" viewBox="0 0 300.000000 300.000000"
 preserveAspectRatio="xMidYMid meet">

<g transform="translate(0.000000,300.000000) scale(0.100000,-0.100000)"
fill="#000000" stroke="none">
<path d="M1206 2457 c-316 -549 -387 -672 -625 -1083 -105 -183 -191 -337
-191 -343 0 -8 311 -11 1115 -11 l1116 0 -15 28 c-8 15 -45 81 -84 147 -267
462 -450 779 -482 835 -20 36 -75 130 -122 210 -46 80 -107 184 -134 232 -27
49 -51 88 -54 88 -5 0 -28 -38 -62 -101 -19 -36 -19 -37 3 -73 24 -41 35 -45
44 -15 10 32 20 19 148 -206 63 -110 199 -346 302 -525 103 -179 214 -370 245
-425 l58 -100 -484 -3 c-266 -1 -702 -1 -968 0 l-484 3 92 160 c51 88 121 210
156 270 34 61 86 151 115 200 66 113 218 377 298 515 33 58 65 111 70 118 7 9
35 -31 98 -142 l88 -155 -43 -73 c-45 -77 -250 -433 -305 -530 l-32 -58 425 0
c236 0 426 4 426 9 0 5 -57 107 -126 227 -279 483 -354 616 -354 626 0 6 12
32 27 60 21 38 29 46 38 36 7 -7 68 -110 135 -228 231 -402 297 -515 388 -672
51 -87 92 -160 92 -163 0 -3 -279 -5 -620 -5 -341 0 -620 3 -620 8 0 4 26 52
58 107 154 265 217 374 311 537 l101 177 -21 35 c-11 20 -24 36 -29 36 -4 0
-46 -66 -93 -147 -359 -621 -477 -827 -477 -834 0 -5 347 -9 771 -9 634 0 770
2 766 13 -3 7 -47 85 -98 173 -51 87 -109 188 -129 224 -20 36 -77 135 -127
220 -133 228 -303 523 -359 622 -27 49 -52 88 -56 88 -4 0 -24 -30 -44 -67
-20 -38 -45 -81 -54 -96 l-17 -29 -54 96 c-30 53 -56 96 -59 96 -3 0 -32 -46
-64 -103z m414 -672 c152 -264 153 -266 148 -271 -3 -2 -127 -3 -276 -2 l-272
3 108 185 c60 102 121 209 137 238 23 42 31 50 40 40 7 -7 58 -94 115 -193z"/>
<path d="M775 633 c-3 -49 -7 -113 -8 -143 -2 -55 -2 -55 28 -55 l30 0 5 90
c4 65 8 84 14 70 5 -11 20 -44 32 -72 18 -42 28 -53 46 -53 19 0 28 12 53 72
26 62 30 67 33 42 13 -162 12 -155 40 -152 27 3 27 4 26 78 -1 41 -4 105 -8
143 -8 66 -8 67 -37 67 -28 0 -33 -6 -68 -82 l-38 -83 -38 83 c-36 78 -39 82
-70 82 l-33 0 -7 -87z"/>
<path d="M1152 578 l3 -143 98 -3 c53 -1 97 1 98 5 0 4 2 18 5 31 4 21 1 22
-66 22 l-70 0 0 35 0 35 55 0 c52 0 55 1 55 25 0 24 -3 25 -55 25 -52 0 -55 1
-55 25 0 23 4 24 63 27 59 3 62 4 65 31 l3 27 -101 0 -101 0 3 -142z"/>
<path d="M1421 703 c-19 -15 -20 -21 -9 -36 11 -15 17 -16 44 -5 78 29 86 -26
14 -97 -49 -48 -79 -110 -61 -128 4 -4 48 -7 97 -5 87 3 89 3 89 28 0 23 -4
25 -58 30 l-58 5 41 40 c53 51 73 90 65 124 -12 46 -33 61 -90 61 -35 0 -60
-6 -74 -17z"/>
<path d="M1676 704 c-3 -9 -9 -74 -13 -146 l-6 -130 29 4 c29 3 29 4 34 80 3
43 8 80 11 83 3 3 18 -24 34 -60 22 -53 31 -65 50 -65 19 0 28 12 50 65 16 36
31 63 34 59 3 -3 8 -40 11 -82 5 -76 5 -77 34 -80 l29 -4 -6 130 c-4 72 -10
137 -13 146 -4 9 -18 16 -34 16 -24 0 -31 -8 -65 -82 l-38 -83 -33 70 c-18 39
-33 76 -33 83 -1 18 -68 15 -75 -4z"/>
<path d="M2050 575 l0 -146 98 3 97 3 3 28 3 27 -70 0 -71 0 0 35 0 35 61 0
c57 0 60 1 57 23 -3 19 -10 22 -60 25 -54 3 -58 5 -58 27 0 23 4 24 63 27 59
3 62 4 65 31 l3 27 -95 0 -96 0 0 -145z"/>
</g>
</svg>
