<svg width="52" height="50" viewBox="0 0 52 50" fill="none" xmlns="http://www.w3.org/2000/svg">
    <path d="M6 47.2114L46.5629 2.99999" stroke="black" stroke-opacity="0.5" stroke-width="5" stroke-linecap="round"/>
    <path fill-rule="evenodd" clip-rule="evenodd" d="M19.7723 25.3083C19.7723 22.0909 22.3557 19.4826 25.5425 19.4826C28.7293 19.4826 31.3127 22.0909 31.3127 25.3083C31.3127 28.5257 28.7293 31.1339 25.5425 31.1339C22.3557 31.1339 19.7723 28.5257 19.7723 25.3083ZM23.5355 25.3083C23.5355 26.4274 24.4341 27.3346 25.5425 27.3346C26.6509 27.3346 27.5495 26.4274 27.5495 25.3083C27.5495 24.1892 26.6509 23.282 25.5425 23.282C24.4341 23.282 23.5355 24.1892 23.5355 25.3083Z" fill="black" fill-opacity="0.4"/>
    <path fill-rule="evenodd" clip-rule="evenodd" d="M37.3588 14.5941L47.8455 23.054C48.5236 23.602 48.9183 24.4314 48.9183 25.3083C48.9183 26.1852 48.5236 27.0146 47.8455 27.5626L37.3588 36.0224C30.4472 41.5924 20.6378 41.5924 13.7262 36.0224L3.23952 27.5626C2.56144 27.0146 2.16675 26.1852 2.16675 25.3083C2.16675 24.4314 2.56144 23.602 3.23952 23.054L13.7262 14.5941C20.6378 9.02418 30.4472 9.02418 37.3588 14.5941ZM16.0593 33.1856C21.6098 37.6456 29.4752 37.6456 35.0257 33.1856L44.6092 25.3083L35.0257 17.5576C29.4752 13.0976 21.6098 13.0976 16.0593 17.5576L6.47583 25.3083L16.0593 33.1856Z" fill="black" fill-opacity="0.4"/>
</svg>
