<svg width="17" height="39" viewBox="0 0 17 39" fill="none" xmlns="http://www.w3.org/2000/svg">
<path d="M11.6429 6.83333L16.5 6.24074M11.6429 6.83333L8.5 1.5M11.6429 6.83333H5.35714M11.6429 6.83333V19.6111M16.5 6.24074L8.5 1.5M16.5 6.24074V21.5L11.6429 19.6111M8.5 1.5L0.5 6.24074M8.5 1.5L5.35714 6.83333M5.35714 6.83333L0.5 6.24074M5.35714 6.83333V17.1667M0.5 6.24074V15.2778L5.35714 17.1667M11.6429 19.6111L5.35714 17.1667" stroke="#5C6973"/>
<path d="M5.35714 32.0714L0.500001 32.6746M5.35714 32.0714L8.5 37.5M5.35714 32.0714L11.6429 32.0714M5.35714 32.0714L5.35714 20.4226M0.500001 32.6746L8.5 37.5M0.500001 32.6746L0.5 18.5L5.35714 20.4226M8.5 37.5L16.5 32.6746M8.5 37.5L11.6429 32.0714M11.6429 32.0714L16.5 32.6746M11.6429 32.0714L11.6429 22.9107M16.5 32.6746L16.5 24.8333L11.6429 22.9107M5.35714 20.4226L11.6429 22.9107" stroke="#5C6973"/>
</svg>
